<svg xmlns="http://www.w3.org/2000/svg" version="1.1" height="560" width="904" viewBox="0 0 904 560" class="diagram" text-anchor="middle" font-family="monospace" font-size="13px" stroke-linecap="round">
<rect class="backdrop" x="0" y="0" width="904" height="560" rx="3px" ry="3px" fill="white" opacity="0.9"/>
<path d="M 8,48 L 8,64" fill="none" stroke="black"/>
<path d="M 8,240 L 8,544" fill="none" stroke="black"/>
<path d="M 24,352 L 24,512" fill="none" stroke="black"/>
<path d="M 40,400 L 40,480" fill="none" stroke="black"/>
<path d="M 56,432 L 56,464" fill="none" stroke="black"/>
<path d="M 80,144 L 80,176" fill="none" stroke="black"/>
<path d="M 136,176 L 136,232" fill="none" stroke="black"/>
<path d="M 136,248 L 136,280" fill="none" stroke="black"/>
<path d="M 136,320 L 136,344" fill="none" stroke="black"/>
<path d="M 160,48 L 160,64" fill="none" stroke="black"/>
<path d="M 200,432 L 200,464" fill="none" stroke="black"/>
<path d="M 216,400 L 216,480" fill="none" stroke="black"/>
<path d="M 232,352 L 232,512" fill="none" stroke="black"/>
<path d="M 248,240 L 248,544" fill="none" stroke="black"/>
<path d="M 416,240 L 416,544" fill="none" stroke="black"/>
<path d="M 432,416 L 432,496" fill="none" stroke="black"/>
<path d="M 448,448 L 448,496" fill="none" stroke="black"/>
<path d="M 592,448 L 592,496" fill="none" stroke="black"/>
<path d="M 608,416 L 608,496" fill="none" stroke="black"/>
<path d="M 624,240 L 624,544" fill="none" stroke="black"/>
<path d="M 792,368 L 792,496" fill="none" stroke="black"/>
<path d="M 896,368 L 896,496" fill="none" stroke="black"/>
<path d="M 24,32 L 144,32" fill="none" stroke="black"/>
<path d="M 24,80 L 72,80" fill="none" stroke="black"/>
<path d="M 96,80 L 144,80" fill="none" stroke="black"/>
<path d="M 64,160 L 96,160" fill="none" stroke="black"/>
<path d="M 112,160 L 120,160" fill="none" stroke="black"/>
<path d="M 8,240 L 248,240" fill="none" stroke="black"/>
<path d="M 416,240 L 624,240" fill="none" stroke="black"/>
<path d="M 248,254 L 408,254" fill="none" stroke="black"/><path d="M 248,258 L 408,258" fill="none" stroke="black"/>
<path d="M 40,288 L 192,288" fill="none" stroke="black"/>
<path d="M 40,320 L 192,320" fill="none" stroke="black"/>
<path d="M 256,318 L 416,318" fill="none" stroke="black"/><path d="M 256,322 L 416,322" fill="none" stroke="black"/>
<path d="M 24,352 L 232,352" fill="none" stroke="black"/>
<path d="M 792,368 L 896,368" fill="none" stroke="black"/>
<path d="M 56,384 L 200,384" fill="none" stroke="black"/>
<path d="M 248,398 L 408,398" fill="none" stroke="black"/><path d="M 248,402 L 408,402" fill="none" stroke="black"/>
<path d="M 448,400 L 592,400" fill="none" stroke="black"/>
<path d="M 624,398 L 784,398" fill="none" stroke="black"/><path d="M 624,402 L 784,402" fill="none" stroke="black"/>
<path d="M 72,416 L 184,416" fill="none" stroke="black"/>
<path d="M 448,432 L 592,432" fill="none" stroke="black"/>
<path d="M 56,448 L 200,448" fill="none" stroke="black"/>
<path d="M 448,448 L 592,448" fill="none" stroke="black"/>
<path d="M 72,480 L 184,480" fill="none" stroke="black"/>
<path d="M 256,478 L 416,478" fill="none" stroke="black"/><path d="M 256,482 L 416,482" fill="none" stroke="black"/>
<path d="M 632,478 L 792,478" fill="none" stroke="black"/><path d="M 632,482 L 792,482" fill="none" stroke="black"/>
<path d="M 56,496 L 200,496" fill="none" stroke="black"/>
<path d="M 448,496 L 592,496" fill="none" stroke="black"/>
<path d="M 792,496 L 896,496" fill="none" stroke="black"/>
<path d="M 24,512 L 232,512" fill="none" stroke="black"/>
<path d="M 448,512 L 592,512" fill="none" stroke="black"/>
<path d="M 248,526 L 408,526" fill="none" stroke="black"/><path d="M 248,530 L 408,530" fill="none" stroke="black"/>
<path d="M 8,544 L 248,544" fill="none" stroke="black"/>
<path d="M 416,544 L 624,544" fill="none" stroke="black"/>
<path d="M 80,176 L 88,192" fill="none" stroke="black"/>
<path d="M 72,80 L 84,104" fill="none" stroke="black"/>
<path d="M 84,104 L 96,80" fill="none" stroke="black"/>
<path d="M 72,192 L 80,176" fill="none" stroke="black"/>
<path d="M 24,32 C 15.16936,32 8,39.16936 8,48" fill="none" stroke="black"/>
<path d="M 144,32 C 152.83064,32 160,39.16936 160,48" fill="none" stroke="black"/>
<path d="M 24,80 C 15.16936,80 8,72.83064 8,64" fill="none" stroke="black"/>
<path d="M 144,80 C 152.83064,80 160,72.83064 160,64" fill="none" stroke="black"/>
<path d="M 80,112 C 71.16936,112 64,119.16936 64,128" fill="none" stroke="black"/>
<path d="M 80,112 C 88.83064,112 96,119.16936 96,128" fill="none" stroke="black"/>
<path d="M 80,144 C 71.16936,144 64,136.83064 64,128" fill="none" stroke="black"/>
<path d="M 80,144 C 88.83064,144 96,136.83064 96,128" fill="none" stroke="black"/>
<path d="M 120,160 C 128.83064,160 136,167.16936 136,176" fill="none" stroke="black"/>
<path d="M 40,288 C 31.16936,288 24,295.16936 24,304" fill="none" stroke="black"/>
<path d="M 192,288 C 200.83064,288 208,295.16936 208,304" fill="none" stroke="black"/>
<path d="M 40,320 C 31.16936,320 24,312.83064 24,304" fill="none" stroke="black"/>
<path d="M 192,320 C 200.83064,320 208,312.83064 208,304" fill="none" stroke="black"/>
<path d="M 56,384 C 47.16936,384 40,391.16936 40,400" fill="none" stroke="black"/>
<path d="M 200,384 C 208.83064,384 216,391.16936 216,400" fill="none" stroke="black"/>
<path d="M 448,400 C 439.16936,400 432,407.16936 432,416" fill="none" stroke="black"/>
<path d="M 592,400 C 600.83064,400 608,407.16936 608,416" fill="none" stroke="black"/>
<path d="M 72,416 C 63.16936,416 56,423.16936 56,432" fill="none" stroke="black"/>
<path d="M 184,416 C 192.83064,416 200,423.16936 200,432" fill="none" stroke="black"/>
<path d="M 448,432 C 439.16936,432 432,424.83064 432,416" fill="none" stroke="black"/>
<path d="M 592,432 C 600.83064,432 608,424.83064 608,416" fill="none" stroke="black"/>
<path d="M 72,480 C 63.16936,480 56,472.83064 56,464" fill="none" stroke="black"/>
<path d="M 184,480 C 192.83064,480 200,472.83064 200,464" fill="none" stroke="black"/>
<path d="M 56,496 C 47.16936,496 40,488.83064 40,480" fill="none" stroke="black"/>
<path d="M 200,496 C 208.83064,496 216,488.83064 216,480" fill="none" stroke="black"/>
<path d="M 448,512 C 439.16936,512 432,504.83064 432,496" fill="none" stroke="black"/>
<path d="M 592,512 C 600.83064,512 608,504.83064 608,496" fill="none" stroke="black"/>
<polygon class="arrowhead" points="792,400 780,394.4 780,405.6" fill="black" transform="rotate(0,784,400)"/>
<polygon class="arrowhead" points="640,480 628,474.4 628,485.6" fill="black" transform="rotate(180,632,480)"/>
<polygon class="arrowhead" points="416,528 404,522.4 404,533.6" fill="black" transform="rotate(0,408,528)"/>
<polygon class="arrowhead" points="416,400 404,394.4 404,405.6" fill="black" transform="rotate(0,408,400)"/>
<polygon class="arrowhead" points="416,256 404,250.4 404,261.6" fill="black" transform="rotate(0,408,256)"/>
<polygon class="arrowhead" points="264,480 252,474.4 252,485.6" fill="black" transform="rotate(180,256,480)"/>
<polygon class="arrowhead" points="264,320 252,314.4 252,325.6" fill="black" transform="rotate(180,256,320)"/>
<polygon class="arrowhead" points="144,344 132,338.4 132,349.6" fill="black" transform="rotate(90,136,344)"/>
<polygon class="arrowhead" points="144,280 132,274.4 132,285.6" fill="black" transform="rotate(90,136,280)"/>
<path class="jump" d="M 136,248 C 142,248 142,232 136,232" fill="none" stroke="black"/><g class="text">
<text x="24" y="52">W</text>
<text x="32" y="52">a</text>
<text x="40" y="52">n</text>
<text x="48" y="52">t</text>
<text x="64" y="52">t</text>
<text x="72" y="52">o</text>
<text x="88" y="52">i</text>
<text x="96" y="52">n</text>
<text x="104" y="52">s</text>
<text x="112" y="52">t</text>
<text x="120" y="52">a</text>
<text x="128" y="52">l</text>
<text x="136" y="52">l</text>
<text x="24" y="68">a</text>
<text x="32" y="68">n</text>
<text x="40" y="68">d</text>
<text x="56" y="68">r</text>
<text x="64" y="68">u</text>
<text x="72" y="68">n</text>
<text x="88" y="68">a</text>
<text x="96" y="68">p</text>
<text x="104" y="68">p</text>
<text x="112" y="68">.</text>
<text x="120" y="68">w</text>
<text x="128" y="68">a</text>
<text x="136" y="68">s</text>
<text x="144" y="68">m</text>
<text x="144" y="212">r</text>
<text x="152" y="212">e</text>
<text x="160" y="212">q</text>
<text x="168" y="212">u</text>
<text x="176" y="212">e</text>
<text x="184" y="212">s</text>
<text x="192" y="212">t</text>
<text x="208" y="212">[</text>
<text x="216" y="212">'</text>
<text x="224" y="212">a</text>
<text x="232" y="212">p</text>
<text x="240" y="212">p</text>
<text x="248" y="212">.</text>
<text x="256" y="212">w</text>
<text x="264" y="212">a</text>
<text x="272" y="212">s</text>
<text x="280" y="212">m</text>
<text x="288" y="212">'</text>
<text x="296" y="212">]</text>
<text x="272" y="244">s</text>
<text x="280" y="244">e</text>
<text x="288" y="244">s</text>
<text x="296" y="244">s</text>
<text x="304" y="244">i</text>
<text x="312" y="244">o</text>
<text x="320" y="244">n</text>
<text x="336" y="244">c</text>
<text x="344" y="244">r</text>
<text x="352" y="244">e</text>
<text x="360" y="244">a</text>
<text x="368" y="244">t</text>
<text x="376" y="244">i</text>
<text x="384" y="244">o</text>
<text x="392" y="244">n</text>
<text x="24" y="260">[</text>
<text x="32" y="260">T</text>
<text x="40" y="260">E</text>
<text x="48" y="260">E</text>
<text x="64" y="260">D</text>
<text x="72" y="260">e</text>
<text x="80" y="260">v</text>
<text x="88" y="260">i</text>
<text x="96" y="260">c</text>
<text x="104" y="260">e</text>
<text x="112" y="260">]</text>
<text x="432" y="260">[</text>
<text x="440" y="260">T</text>
<text x="448" y="260">A</text>
<text x="456" y="260">M</text>
<text x="464" y="260">]</text>
<text x="288" y="292">Q</text>
<text x="296" y="292">u</text>
<text x="304" y="292">e</text>
<text x="312" y="292">r</text>
<text x="320" y="292">y</text>
<text x="328" y="292">R</text>
<text x="336" y="292">e</text>
<text x="344" y="292">q</text>
<text x="352" y="292">u</text>
<text x="360" y="292">e</text>
<text x="368" y="292">s</text>
<text x="376" y="292">t</text>
<text x="72" y="308">T</text>
<text x="80" y="308">E</text>
<text x="88" y="308">E</text>
<text x="96" y="308">P</text>
<text x="112" y="308">B</text>
<text x="120" y="308">r</text>
<text x="128" y="308">o</text>
<text x="136" y="308">k</text>
<text x="144" y="308">e</text>
<text x="152" y="308">r</text>
<text x="280" y="308">(</text>
<text x="288" y="308">W</text>
<text x="296" y="308">h</text>
<text x="304" y="308">o</text>
<text x="320" y="308">a</text>
<text x="328" y="308">r</text>
<text x="336" y="308">e</text>
<text x="352" y="308">y</text>
<text x="360" y="308">o</text>
<text x="368" y="308">u</text>
<text x="376" y="308">?</text>
<text x="384" y="308">)</text>
<text x="272" y="356">Q</text>
<text x="280" y="356">u</text>
<text x="288" y="356">e</text>
<text x="296" y="356">r</text>
<text x="304" y="356">y</text>
<text x="312" y="356">R</text>
<text x="320" y="356">e</text>
<text x="328" y="356">s</text>
<text x="336" y="356">p</text>
<text x="344" y="356">o</text>
<text x="352" y="356">n</text>
<text x="360" y="356">s</text>
<text x="368" y="356">e</text>
<text x="40" y="372">[</text>
<text x="48" y="372">T</text>
<text x="56" y="372">E</text>
<text x="64" y="372">E</text>
<text x="72" y="372">]</text>
<text x="272" y="372">(</text>
<text x="280" y="372">G</text>
<text x="288" y="372">e</text>
<text x="296" y="372">n</text>
<text x="304" y="372">u</text>
<text x="312" y="372">i</text>
<text x="320" y="372">n</text>
<text x="328" y="372">e</text>
<text x="344" y="372">A</text>
<text x="352" y="372">g</text>
<text x="360" y="372">e</text>
<text x="368" y="372">n</text>
<text x="376" y="372">t</text>
<text x="384" y="372">,</text>
<text x="680" y="372">E</text>
<text x="688" y="372">v</text>
<text x="696" y="372">i</text>
<text x="704" y="372">d</text>
<text x="712" y="372">e</text>
<text x="720" y="372">n</text>
<text x="728" y="372">c</text>
<text x="736" y="372">e</text>
<text x="264" y="388">s</text>
<text x="272" y="388">e</text>
<text x="280" y="388">e</text>
<text x="296" y="388">t</text>
<text x="304" y="388">h</text>
<text x="312" y="388">i</text>
<text x="320" y="388">s</text>
<text x="336" y="388">E</text>
<text x="344" y="388">v</text>
<text x="352" y="388">i</text>
<text x="360" y="388">d</text>
<text x="368" y="388">e</text>
<text x="376" y="388">n</text>
<text x="384" y="388">c</text>
<text x="392" y="388">e</text>
<text x="400" y="388">)</text>
<text x="648" y="388">(</text>
<text x="656" y="388">I</text>
<text x="664" y="388">s</text>
<text x="680" y="388">h</text>
<text x="688" y="388">e</text>
<text x="704" y="388">g</text>
<text x="712" y="388">e</text>
<text x="720" y="388">n</text>
<text x="728" y="388">u</text>
<text x="736" y="388">i</text>
<text x="744" y="388">n</text>
<text x="752" y="388">e</text>
<text x="760" y="388">?</text>
<text x="768" y="388">)</text>
<text x="808" y="388">[</text>
<text x="816" y="388">V</text>
<text x="824" y="388">e</text>
<text x="832" y="388">r</text>
<text x="840" y="388">i</text>
<text x="848" y="388">f</text>
<text x="856" y="388">i</text>
<text x="864" y="388">e</text>
<text x="872" y="388">r</text>
<text x="880" y="388">]</text>
<text x="56" y="404">T</text>
<text x="64" y="404">E</text>
<text x="72" y="404">E</text>
<text x="80" y="404">P</text>
<text x="96" y="404">A</text>
<text x="104" y="404">g</text>
<text x="112" y="404">e</text>
<text x="120" y="404">n</text>
<text x="128" y="404">t</text>
<text x="72" y="436">n</text>
<text x="80" y="436">o</text>
<text x="96" y="436">[</text>
<text x="104" y="436">'</text>
<text x="112" y="436">a</text>
<text x="120" y="436">p</text>
<text x="128" y="436">p</text>
<text x="136" y="436">.</text>
<text x="144" y="436">w</text>
<text x="152" y="436">a</text>
<text x="160" y="436">s</text>
<text x="168" y="436">m</text>
<text x="176" y="436">'</text>
<text x="184" y="436">]</text>
<text x="312" y="436">U</text>
<text x="320" y="436">p</text>
<text x="328" y="436">d</text>
<text x="336" y="436">a</text>
<text x="344" y="436">t</text>
<text x="352" y="436">e</text>
<text x="264" y="452">(</text>
<text x="272" y="452">H</text>
<text x="280" y="452">e</text>
<text x="288" y="452">r</text>
<text x="296" y="452">e</text>
<text x="304" y="452">'</text>
<text x="312" y="452">s</text>
<text x="328" y="452">a</text>
<text x="344" y="452">M</text>
<text x="352" y="452">a</text>
<text x="360" y="452">n</text>
<text x="368" y="452">i</text>
<text x="376" y="452">f</text>
<text x="384" y="452">e</text>
<text x="392" y="452">s</text>
<text x="400" y="452">t</text>
<text x="640" y="452">A</text>
<text x="648" y="452">t</text>
<text x="656" y="452">t</text>
<text x="664" y="452">e</text>
<text x="672" y="452">s</text>
<text x="680" y="452">t</text>
<text x="688" y="452">a</text>
<text x="696" y="452">t</text>
<text x="704" y="452">i</text>
<text x="712" y="452">o</text>
<text x="720" y="452">n</text>
<text x="736" y="452">R</text>
<text x="744" y="452">e</text>
<text x="752" y="452">s</text>
<text x="760" y="452">u</text>
<text x="768" y="452">l</text>
<text x="776" y="452">t</text>
<text x="88" y="468">W</text>
<text x="96" y="468">a</text>
<text x="104" y="468">s</text>
<text x="112" y="468">m</text>
<text x="120" y="468">R</text>
<text x="128" y="468">u</text>
<text x="136" y="468">n</text>
<text x="144" y="468">t</text>
<text x="152" y="468">i</text>
<text x="160" y="468">m</text>
<text x="168" y="468">e</text>
<text x="272" y="468">f</text>
<text x="280" y="468">o</text>
<text x="288" y="468">r</text>
<text x="304" y="468">[</text>
<text x="312" y="468">'</text>
<text x="320" y="468">a</text>
<text x="328" y="468">p</text>
<text x="336" y="468">p</text>
<text x="344" y="468">.</text>
<text x="352" y="468">w</text>
<text x="360" y="468">a</text>
<text x="368" y="468">s</text>
<text x="376" y="468">m</text>
<text x="384" y="468">'</text>
<text x="392" y="468">]</text>
<text x="400" y="468">)</text>
<text x="464" y="468">S</text>
<text x="472" y="468">U</text>
<text x="480" y="468">I</text>
<text x="488" y="468">T</text>
<text x="504" y="468">M</text>
<text x="512" y="468">a</text>
<text x="520" y="468">n</text>
<text x="528" y="468">i</text>
<text x="536" y="468">f</text>
<text x="544" y="468">e</text>
<text x="552" y="468">s</text>
<text x="560" y="468">t</text>
<text x="664" y="468">(</text>
<text x="672" y="468">Y</text>
<text x="680" y="468">e</text>
<text x="688" y="468">s</text>
<text x="704" y="468">h</text>
<text x="712" y="468">e</text>
<text x="728" y="468">i</text>
<text x="736" y="468">s</text>
<text x="744" y="468">)</text>
<text x="464" y="484">o</text>
<text x="472" y="484">f</text>
<text x="488" y="484">[</text>
<text x="496" y="484">'</text>
<text x="504" y="484">a</text>
<text x="512" y="484">p</text>
<text x="520" y="484">p</text>
<text x="528" y="484">.</text>
<text x="536" y="484">w</text>
<text x="544" y="484">a</text>
<text x="552" y="484">s</text>
<text x="560" y="484">m</text>
<text x="568" y="484">'</text>
<text x="576" y="484">]</text>
<text x="304" y="516">S</text>
<text x="312" y="516">u</text>
<text x="320" y="516">c</text>
<text x="328" y="516">c</text>
<text x="336" y="516">e</text>
<text x="344" y="516">s</text>
<text x="352" y="516">s</text>
</g>
</svg>
